<svg width="28" height="28" viewBox="0 0 28 28" fill="none" xmlns="http://www.w3.org/2000/svg">
<path d="M12.0867 12.9267H4.43333C2.52 12.9267 0.933334 11.34 0.933334 9.42667V1.77333C0.933334 1.4 1.26 1.07333 1.63333 1.07333H9.28667C11.2 1.07333 12.7867 2.66 12.7867 4.57333V12.2267C12.7867 12.6 12.46 12.9267 12.0867 12.9267ZM2.33333 2.47333V9.42667C2.33333 10.5933 3.26667 11.5267 4.43333 11.5267H11.3867V4.57333C11.3867 3.40667 10.4533 2.47333 9.28667 2.47333H2.33333ZM23.5667 12.9267H15.9133C15.54 12.9267 15.2133 12.6 15.2133 12.2267V4.57333C15.2133 2.66 16.8 1.07333 18.7133 1.07333H26.3667C26.74 1.07333 27.0667 1.4 27.0667 1.77333V9.42667C27.0667 11.34 25.48 12.9267 23.5667 12.9267ZM16.6133 11.5267H23.5667C24.7333 11.5267 25.6667 10.5933 25.6667 9.42667V2.47333H18.7133C17.5467 2.47333 16.6133 3.40667 16.6133 4.57333V11.5267Z" fill="#fff"/>
<path d="M26.3667 26.9267H18.7133C16.8 26.9267 15.2133 25.34 15.2133 23.4267V15.7733C15.2133 15.4 15.54 15.0733 15.9133 15.0733H23.5667C25.48 15.0733 27.0667 16.66 27.0667 18.5733V26.2267C27.0667 26.6 26.74 26.9267 26.3667 26.9267ZM16.6133 16.4733V23.4267C16.6133 24.5933 17.5467 25.5267 18.7133 25.5267H25.6667V18.5733C25.6667 17.4067 24.7333 16.4733 23.5667 16.4733H16.6133ZM9.28667 26.9267H1.63333C1.26 26.9267 0.933334 26.6 0.933334 26.2267V18.5733C0.933334 16.66 2.52 15.0733 4.43333 15.0733H12.0867C12.46 15.0733 12.7867 15.4 12.7867 15.7733V23.4267C12.7867 25.34 11.2 26.9267 9.28667 26.9267ZM2.33333 25.5267H9.28667C10.4533 25.5267 11.3867 24.5933 11.3867 23.4267V16.4733H4.43333C3.26667 16.4733 2.33333 17.4067 2.33333 18.5733V25.5267Z" fill="#fff"/>
</svg>
