<svg width="30" height="29" viewBox="0 0 30 29" fill="none" xmlns="http://www.w3.org/2000/svg">
<defs>
  <linearGradient id="gradient" x1="0%" y1="0%" x2="0%" y2="100%">
    <stop offset="0%" stop-color="#ffffff" />
    <stop offset="50%" stop-color="rgb(226,233,243)" />
    <stop offset="100%" stop-color="rgb(173,191,211)" />
  </linearGradient>
</defs>
<path d="M14.7226 26.3364C12.4097 26.3196 10.0949 26.3972 7.78536 26.2135C6.80791 26.1357 5.8383 26.0189 4.93733 25.6037C4.15776 25.2445 3.7766 24.664 3.76217 23.8184C3.6858 19.3362 6.97863 15.791 11.5931 15.4423C13.835 15.273 16.0816 15.2916 18.3239 15.4568C22.6132 15.7728 26.2442 20.0284 25.7412 24.1372C25.658 24.8157 25.2497 25.2676 24.6339 25.567C23.6773 26.032 22.6359 26.1305 21.5931 26.215C19.3059 26.4005 17.0132 26.317 14.7226 26.3364ZM21.2202 8.48489C21.2231 12.0883 18.2754 14.8928 14.4896 14.8884C10.7645 14.884 7.77447 12.0463 7.77476 8.51563C7.77505 4.97318 10.8361 2.04967 14.5258 2.06798C18.2074 2.08629 21.2173 4.97141 21.2202 8.48489Z" fill="url(#gradient)"/>
</svg>
