<svg t="1699019909362" class="icon" viewBox="0 0 1024 1024" version="1.1" xmlns="http://www.w3.org/2000/svg" p-id="5986" width="256" height="256">
<defs>
  <linearGradient id="gradient" x1="0%" y1="0%" x2="0%" y2="100%">
    <stop offset="0%" stop-color="#ffffff" />
    <stop offset="50%" stop-color="rgb(226,233,243)" />
    <stop offset="100%" stop-color="rgb(173,191,211)" />
  </linearGradient>
</defs>
<path d="M512.001 15.678C237.414 15.678 14.82 238.273 14.82 512.86S237.414 1010.04 512 1010.04s497.18-222.593 497.18-497.18S786.589 15.678 512.002 15.678z m213.211 645.937c17.798 17.803 17.798 46.657 0 64.456-17.798 17.797-46.658 17.797-64.456 0L512.001 577.315 363.241 726.07c-17.799 17.797-46.652 17.797-64.45 0-17.804-17.799-17.804-46.653 0-64.456L447.545 512.86 298.79 364.104c-17.803-17.798-17.803-46.657 0-64.455 17.799-17.798 46.652-17.798 64.45 0l148.761 148.755 148.755-148.755c17.798-17.798 46.658-17.798 64.456 0 17.798 17.798 17.798 46.657 0 64.455L576.456 512.86l148.756 148.755z m0 0" p-id="5987" fill="url(#gradient)">
</path>
</svg>