<svg width="40" height="40" viewBox="0 0 40 40" fill="none" xmlns="http://www.w3.org/2000/svg">
<path d="M36.0434 10.857H35.5488V9.05391C35.548 8.38076 35.2802 7.73542 34.8042 7.25943C34.3283 6.78344 33.6829 6.51567 33.0098 6.51484H15.9625L15.8039 5.91406C15.6604 5.37233 15.3419 4.89323 14.8978 4.5513C14.4538 4.20937 13.9092 4.02379 13.3488 4.02344H6.19453C5.52138 4.02426 4.87604 4.29204 4.40006 4.76802C3.92407 5.24401 3.65629 5.88935 3.65547 6.5625V33.75C3.65629 34.4231 3.92407 35.0685 4.40006 35.5445C4.87604 36.0205 5.52138 36.2882 6.19453 36.2891H36.0434C36.7165 36.2882 37.3618 36.0205 37.8378 35.5445C38.3138 35.0685 38.5816 34.4231 38.5824 33.75V13.3961C38.5817 12.7229 38.314 12.0775 37.8379 11.6015C37.3619 11.1255 36.7165 10.8578 36.0434 10.857ZM33.0098 8.46797C33.1652 8.46797 33.3142 8.5297 33.4241 8.63959C33.534 8.74947 33.5957 8.89851 33.5957 9.05391V10.857H17.5598C17.4302 10.8572 17.3042 10.8145 17.2015 10.7355C17.0988 10.6565 17.0252 10.5456 16.9922 10.4203L16.477 8.46719L33.0098 8.46797ZM6.19453 5.97656H13.3488C13.4782 5.97659 13.6038 6.0194 13.7063 6.09832C13.8088 6.17725 13.8822 6.28785 13.9152 6.41289L15.1047 10.9191C15.2477 11.4612 15.5661 11.9407 16.0102 12.2829C16.4543 12.625 16.9991 12.8105 17.5598 12.8105H36.0434C36.1988 12.8105 36.3478 12.8723 36.4577 12.9822C36.5676 13.092 36.6293 13.2411 36.6293 13.3965V15.3906H5.60859V6.5625C5.60859 6.4071 5.67033 6.25806 5.78021 6.14818C5.89009 6.0383 6.03913 5.97656 6.19453 5.97656ZM36.0434 34.3359H6.19453C6.03913 34.3359 5.89009 34.2742 5.78021 34.1643C5.67033 34.0544 5.60859 33.9054 5.60859 33.75V17.3438H36.6293V33.75C36.6293 33.9054 36.5676 34.0544 36.4577 34.1643C36.3478 34.2742 36.1988 34.3359 36.0434 34.3359Z" fill="#8A8A8A"/>
</svg>
