<svg t="1699794371778" class="icon" viewBox="0 0 1024 1024" version="1.1" xmlns="http://www.w3.org/2000/svg" p-id="1299" width="32" height="32"><path d="M0 0m184.32 0l655.36 0q184.32 0 184.32 184.32l0 655.36q0 184.32-184.32 184.32l-655.36 0q-184.32 0-184.32-184.32l0-655.36q0-184.32 184.32-184.32Z" fill="#FFFFFF" p-id="1300"></path><path d="M266.24 675.84h552.96v122.88a40.96 40.96 0 0 1-40.96 40.96H307.2a40.96 40.96 0 0 1-40.96-40.96V675.84z" fill="#1E3E8C" p-id="1301"></path><path d="M266.24 512h552.96v163.84h-552.96z" fill="#2C59B7" p-id="1302"></path><path d="M266.24 348.16h552.96v163.84h-552.96z" fill="#437ACD" p-id="1303"></path><path d="M307.2 184.32h471.04a40.96 40.96 0 0 1 40.96 40.96v122.88h-552.96v-122.88a40.96 40.96 0 0 1 40.96-40.96z" fill="#5DA3E8" p-id="1304"></path><path d="M81.92 327.68m40.96 0l286.72 0q40.96 0 40.96 40.96l0 286.72q0 40.96-40.96 40.96l-286.72 0q-40.96 0-40.96-40.96l0-286.72q0-40.96 40.96-40.96Z" fill="#3364BF" p-id="1305"></path><path d="M133.82656 411.01312l53.49376 201.984h39.936l37.80608-136.01792h2.21184l38.20544 136.01792h39.65952l53.5552-201.984h-43.68384l-31.1808 144.3328h-2.304l-37.50912-144.3328h-35.70688l-36.80256 144.3328h-2.24256l-31.4368-144.3328z" fill="#FFFFFF" p-id="1306"></path></svg>