<svg width="24" height="24" viewBox="0 0 24 24" fill="none" xmlns="http://www.w3.org/2000/svg">
<path fill-rule="evenodd" clip-rule="evenodd" d="M20.701 18.9801L19.4611 20.2203L16.571 17.3301C15.2129 18.1798 13.7313 18.723 12.1878 18.723C8.10606 18.723 4.46265 14.9268 2.37549 11.7068C3.3845 10.1503 4.75747 8.45886 6.36771 7.12685L3.67434 4.43348L4.91446 3.19336L12.8097 11.0887L20.701 18.9801ZM12.1879 16.9689C13.2853 16.9689 14.339 16.6054 15.3021 16.0612L14.6047 15.3636C13.9111 15.8237 13.0804 16.0915 12.1879 16.0915C9.77185 16.0915 7.80262 14.1221 7.80262 11.7064C7.80262 10.8154 8.07162 9.98467 8.53196 9.29108L7.60229 8.3614C6.12962 9.54754 5.00624 10.9788 4.48031 11.7069C5.47439 13.0827 8.60016 16.9689 12.1879 16.9689ZM9.81269 10.572L13.3211 14.0804C12.9775 14.2452 12.5932 14.3376 12.1878 14.3376C10.7367 14.3376 9.55671 13.1571 9.55671 11.7065C9.55671 11.3002 9.64858 10.9156 9.81269 10.572ZM18.0715 13.8699C18.9039 13.0226 19.5378 12.2019 19.8956 11.7067C18.9013 10.3307 15.7755 6.44429 12.188 6.44429C11.7253 6.44429 11.2701 6.50917 10.8266 6.62473L9.44536 5.24347C10.3272 4.89277 11.2458 4.69007 12.188 4.69007C16.2688 4.69007 19.9143 8.48622 22.0001 11.7067C21.2733 12.8287 20.3569 14.0205 19.2991 15.0975L18.0715 13.8699ZM16.5731 11.7065C16.5731 9.28878 14.6057 7.3212 12.188 7.3212C11.9773 7.3212 11.7698 7.33636 11.5669 7.36548L16.529 12.3274C16.5577 12.1245 16.5731 11.9173 16.5731 11.7065Z" fill="#787878"/>
</svg>
