<svg t="1699794498257" class="icon" viewBox="0 0 1024 1024" version="1.1" xmlns="http://www.w3.org/2000/svg" p-id="59904" width="32" height="32"><path d="M160 32c-12 0-24.8 4.8-33.6 14.4S112 68 112 80v864c0 12 4.8 24.8 14.4 33.6 9.6 9.6 21.6 14.4 33.6 14.4h704c12 0 24.8-4.8 33.6-14.4 9.6-9.6 14.4-21.6 14.4-33.6V304L640 32H160z" fill="#E5E5E5" p-id="59905"></path><path d="M912 304H688c-12 0-24.8-4.8-33.6-14.4-9.6-8.8-14.4-21.6-14.4-33.6V32l272 272z" fill="#CCCCCC" p-id="59906"></path><path d="M264 376h208c13.6 0 24-10.4 24-24s-10.4-24-24-24H264c-13.6 0-24 10.4-24 24s10.4 24 24 24zM264 536h496c13.6 0 24-10.4 24-24s-10.4-24-24-24H264c-13.6 0-24 10.4-24 24s10.4 24 24 24zM760 648H264c-13.6 0-24 10.4-24 24s10.4 24 24 24h496c13.6 0 24-10.4 24-24s-10.4-24-24-24z" fill="#FFFFFF" p-id="59907"></path></svg>