<svg t="1699794384528" class="icon" viewBox="0 0 1024 1024" version="1.1" xmlns="http://www.w3.org/2000/svg" p-id="1523" width="32" height="32"><path d="M0 0m184.32 0l655.36 0q184.32 0 184.32 184.32l0 655.36q0 184.32-184.32 184.32l-655.36 0q-184.32 0-184.32-184.32l0-655.36q0-184.32 184.32-184.32Z" fill="#FFFFFF" p-id="1524"></path><path d="M860.16 512h-337.92v-337.92a337.92 337.92 0 0 1 337.92 337.92z" fill="#F09573" p-id="1525"></path><path d="M522.24 174.08v337.92h-337.92a337.92 337.92 0 0 1 337.92-337.92z" fill="#DD7451" p-id="1526"></path><path d="M860.16 512a337.92 337.92 0 0 1-675.84 0z" fill="#C45A3B" p-id="1527"></path><path d="M81.92 327.68m40.96 0l286.72 0q40.96 0 40.96 40.96l0 286.72q0 40.96-40.96 40.96l-286.72 0q-40.96 0-40.96-40.96l0-286.72q0-40.96 40.96-40.96Z" fill="#B74A2B" p-id="1528"></path><path d="M220.34432 619.39712h-42.30144l0.17408-202.10688h85.87264a71.68 71.68 0 0 1 45.88544 16.46592 66.33472 66.33472 0 0 1 22.528 52.45952 67.75808 67.75808 0 0 1-21.92384 52.59264 68.39296 68.39296 0 0 1-45.056 17.152H220.35456v63.488z m0-168.47872v71.8336h34.34496a41.66656 41.66656 0 0 0 18.37056-4.75136 32.65536 32.65536 0 0 0 16.47616-31.20128 32.58368 32.58368 0 0 0-16.384-31.09888 40.96 40.96 0 0 0-18.432-4.77184h-34.38592z" fill="#FFFFFF" p-id="1529"></path></svg>