<svg width="24" height="24" viewBox="0 0 24 24" fill="none" xmlns="http://www.w3.org/2000/svg">
<path fill-rule="evenodd" clip-rule="evenodd" d="M2.20996 12.0001C4.29241 15.2126 7.92728 19 11.9994 19C16.0706 19 19.7077 15.2128 21.7886 12.0001C19.7077 8.78716 16.0708 5 11.9994 5C7.92678 5 4.29241 8.78765 2.20996 12.0001ZM19.689 12.0001C18.6972 13.3727 15.5787 17.2499 11.9994 17.2499C8.42009 17.2499 5.30162 13.3727 4.30975 12.0001C5.30162 10.6273 8.42009 6.75009 11.9994 6.75009C15.5787 6.75009 18.6972 10.6273 19.689 12.0001ZM9.37454 11.9996C9.37454 10.5492 10.549 9.37474 11.9994 9.37474C13.4459 9.37474 14.6243 10.5531 14.6243 11.9996C14.6243 13.4461 13.4459 14.6245 11.9994 14.6245C10.5517 14.6245 9.37454 13.4469 9.37454 11.9996ZM11.9994 7.62465C14.4115 7.62465 16.3744 9.58756 16.3744 11.9996C16.3744 14.4117 14.4115 16.3746 11.9994 16.3746C9.58909 16.3746 7.62445 14.4097 7.62445 11.9996C7.62445 9.59153 9.59132 7.62465 11.9994 7.62465Z" fill="#008CD6"/>
</svg>
