<svg t="1699794459703" class="icon" viewBox="0 0 1024 1024" version="1.1" xmlns="http://www.w3.org/2000/svg" p-id="57884" width="32" height="32"><path d="M799.317333 2.645333h-0.085333l203.136 211.797334v805.248H243.541333v2.645333h761.472V217.088L799.36 2.645333" fill="#949494" p-id="57885"></path><path d="M796.714667 0H240.896v1019.733333h761.472V214.4L796.714667 0" fill="#F1F1F1" p-id="57886"></path><path d="M235.306667 54.613333H2.005333v249.301334H735.829333V54.613333z" fill="#808080" p-id="57887"></path><path d="M6.784 50.346667H739.84v249.472H6.784z" fill="#DC1D00" p-id="57888"></path><path d="M242.901333 176.256l-3.285333-0.042667V122.24h7.082667c8.064 0 13.141333 2.56 16.725333 6.613333 4.522667 5.12 6.698667 14.037333 6.698667 20.394667 0 8.96 0 17.066667-8.106667 22.869333-4.352 3.072-11.349333 4.138667-19.114667 4.138667m6.912-83.712h-1.109333a412.586667 412.586667 0 0 1-7.552 0.128h-39.04v175.402667h37.546667V208.682667l8.277333 0.426666c8.746667 0 16.554667-1.877333 23.637333-4.224 7.04-2.304 12.970667-6.186667 18.005334-10.624 5.034667-4.437333 9.685333-10.112 12.245333-16.554666 3.84-9.728 4.864-23.424 3.84-33.152-1.024-9.429333-1.408-17.322667-4.181333-23.509334a43.776 43.776 0 0 0-10.666667-15.146666 43.818667 43.818667 0 0 0-14.378667-8.576 78.250667 78.250667 0 0 0-26.624-4.778667M370.261333 235.776l-3.584-0.085333V123.818667h0.426667c7.68 0 17.066667 0.042667 21.888 3.925333 4.949333 3.968 8.874667 8.832 11.818667 14.634667 2.986667 5.845333 4.906667 12.458667 5.205333 19.2 0.341333 8.064 0.042667 14.506667 0.042667 20.053333 0 5.461333 0 12.16-1.194667 18.773333a64 64 0 0 1-6.186667 18.346667c-2.944 5.674667-8.277333 9.514667-13.226666 13.141333-4.181333 3.072-9.216 3.84-15.189334 3.84m6.656-143.701333c-4.053333 0-7.978667 0.298667-10.752 0.426667l-8.576 0.213333h-28.458666v175.402667h33.493333c14.762667 0 27.306667-2.133333 37.546667-6.4 10.24-4.266667 18.517333-10.24 24.832-17.92a70.826667 70.826667 0 0 0 13.610666-27.306667c2.773333-10.581333 4.138667-22.144 4.138667-34.688 0-16.298667 0.042667-28.757333-3.2-41.173333a64.853333 64.853333 0 0 0-14.762667-26.752 59.477333 59.477333 0 0 0-19.541333-14.677334 88.021333 88.021333 0 0 0-20.010667-6.528 47.232 47.232 0 0 0-8.32-0.597333M555.690667 92.672h-88.746667v175.402667h37.546667V198.4h47.445333v-32.554667h-47.402667v-40.618666h51.2v-32.554667" fill="#4D4D4D" p-id="57889"></path><path d="M865.109333 689.877333c-0.341333-3.498667-3.498667-44.117333-75.52-42.368-72.106667 1.749333-89.6 6.314667-89.6 6.314667s-53.888-54.613333-73.472-96.938667c0 0 23.765333-69.632 22.741334-113.365333-1.066667-43.733333-11.562667-68.906667-45.141334-68.565333-33.621333 0.341333-38.485333 29.738667-34.090666 73.514666 3.968 39.253333 24.32 85.333333 24.32 85.333334s-15.530667 48.298667-36.096 96.341333c-20.48 48.042667-34.517333 73.258667-34.517334 73.258667s-69.376 23.210667-99.456 51.2c-30.122667 27.989333-42.325333 49.493333-26.496 71.04 13.653333 18.517333 61.44 22.698667 104.149334-33.28 42.666667-55.978667 61.952-90.965333 61.952-90.965334s65.152-17.834667 85.376-22.741333c20.266667-4.906667 44.8-8.746667 44.8-8.746667s59.434667 59.818667 116.821333 57.728c57.386667-2.090667 54.613333-34.261333 54.229333-37.76z m-452.394666 126.293334c-35.712-21.333333 74.88-87.125333 94.805333-89.216 0 0-57.429333 111.573333-94.805333 89.216z m169.685333-383.829334c0-34.645333 11.221333-44.074667 19.968-44.074666 8.746667 0 18.517333 4.181333 18.901333 34.261333 0.341333 30.08-18.901333 88.874667-18.901333 88.874667-6.656-6.997333-19.968-44.416-19.968-79.061334z m46.08 237.226667c-35.797333 8.746667-53.76 17.834667-53.76 17.834667l14.677333-32.853334c14.72-32.896 29.738667-77.696 29.738667-77.696 20.309333 37.76 60.586667 82.218667 60.586667 82.218667s-15.445333 1.749333-51.2 10.496z m86.058667-3.029333s116.394667-21.12 116.394666 18.645333c0 39.765333-72.064 23.594667-116.394666-18.645333z" fill="#DC1D00" p-id="57890"></path><path d="M793.898667 2.816v214.442667h205.653333z" fill="#949494" p-id="57891"></path><path d="M796.714667 0v214.442667h205.653333z" fill="#F1F1F1" p-id="57892"></path><path d="M240.085333 173.482667c-1.066667 0-2.133333 0-3.242666-0.085334V119.466667h7.04c8.106667 0 13.184 2.56 16.768 6.656 4.522667 5.077333 6.656 13.994667 6.656 20.352 0 9.002667 0 17.109333-8.106667 22.869333-4.352 3.114667-11.349333 4.181333-19.114667 4.181333m6.912-83.754666h-1.109333a400.768 400.768 0 0 1-7.552 0.128h-39.04v175.402666h37.546667V205.866667l8.32 0.469333c8.704 0 16.554667-1.92 23.594666-4.266667 7.04-2.304 12.970667-6.186667 18.005334-10.624 5.034667-4.394667 9.685333-10.112 12.245333-16.554666 3.84-9.728 4.864-23.424 3.84-33.152-0.981333-9.386667-1.408-17.28-4.181333-23.466667a43.776 43.776 0 0 0-10.666667-15.146667 43.818667 43.818667 0 0 0-14.378667-8.618666 78.421333 78.421333 0 0 0-26.624-4.778667M367.445333 232.96c-1.152 0-2.346667 0-3.584-0.085333V121.045333h0.469334c7.68 0 16.981333 0 21.845333 3.882667 4.949333 3.968 8.917333 8.832 11.861333 14.677333 2.944 5.802667 4.864 12.458667 5.12 19.2 0.384 8.021333 0.085333 14.506667 0.085334 20.053334 0 5.418667 0 12.117333-1.194667 18.730666a63.914667 63.914667 0 0 1-6.186667 18.346667c-2.944 5.674667-8.277333 9.514667-13.226666 13.141333-4.138667 3.072-9.216 3.882667-15.189334 3.882667m6.656-143.744c-4.053333 0-7.978667 0.298667-10.752 0.426667l-8.533333 0.213333h-28.501333v175.402667h33.493333c14.805333 0 27.306667-2.133333 37.546667-6.4 10.24-4.266667 18.517333-10.24 24.832-17.92a70.826667 70.826667 0 0 0 13.610666-27.306667c2.773333-10.538667 4.138667-22.101333 4.138667-34.688 0-16.256 0.042667-28.714667-3.2-41.130667a64.853333 64.853333 0 0 0-14.762667-26.794666 59.434667 59.434667 0 0 0-19.498666-14.634667 88.021333 88.021333 0 0 0-20.053334-6.528 46.890667 46.890667 0 0 0-8.32-0.64M552.917333 89.856h-88.746666v175.402667h37.546666V195.584h47.402667v-32.554667h-47.36v-40.618666h51.157333v-32.554667" fill="#FFFEFE" p-id="57893"></path></svg>