<svg width="24" height="24" viewBox="0 0 24 24" fill="none" xmlns="http://www.w3.org/2000/svg">
<path fill-rule="evenodd" clip-rule="evenodd" d="M14.473 15.888L18.293 19.708L19.708 18.294L15.888 14.474C16.6122 13.4605 17.001 12.2457 17 11C17 7.695 14.305 5 11 5C7.696 5 5 7.697 5 11C5 14.303 7.698 17 11 17C12.2454 17.0009 13.4598 16.6121 14.473 15.888ZM15 11.001C15 13.201 13.202 15.001 11 15.001C8.795 15.001 7 13.204 7 11.001C7 8.797 8.795 7.001 11 7.001C13.201 7.001 15 8.798 15 11.001Z" fill="#008CD6"/>
</svg>