<svg t="1699792370364" class="icon" viewBox="0 0 1024 1024" version="1.1" xmlns="http://www.w3.org/2000/svg" p-id="20525" width="256" height="256"><path d="M511.6928 513.28m-450.816 0a450.816 450.816 0 1 0 901.632 0 450.816 450.816 0 1 0-901.632 0Z" fill="#E9F4FF" p-id="20526"></path><path d="M816.5376 363.9296v307.8656c-15.0016 22.5792-26.8288 24.6272-48.64 8.3456-6.912-5.1712-13.7216-10.496-20.6848-15.616-9.8304-7.2192-19.7632-14.336-31.8464-23.0912 0 17.7152 0.4608 31.9488-0.1024 46.08-1.3824 34.0992-22.3744 54.3232-56.4224 54.3232-132.096 0.1024-264.1408 0.1024-396.2368 0-35.4816 0-55.7056-20.2752-55.7056-55.8592-0.1024-115.3024-0.1024-230.6048 0-345.9072 0.0512-34.7648 20.3264-55.3472 54.6816-55.3472 132.5568-0.1024 265.1648-0.1024 397.7216 0 33.8432 0.0512 54.784 20.5312 55.9616 54.784 0.512 15.2064 0 30.464 0.1536 45.7216 0.0512 3.6352 0.8704 7.2192 1.536 12.3392 17.9712-13.4656 34.2016-25.6512 50.4832-37.7344 22.1696-16.4864 30.4128-15.7696 49.1008 4.096z m-419.4304 22.016c-46.4384 0.4096-88.832 42.8544-88.9344 89.1392-0.1536 46.08 42.1376 88.6272 88.7808 89.2928 46.2848 0.6656 90.5728-43.7248 89.6512-89.856-0.9216-46.848-43.4688-88.9344-89.4976-88.576z" fill="#0656ab" p-id="20527" data-spm-anchor-id="a313x.search_index.0.i6.41e13a81xPhu5w" class=""></path><path d="M717.0048 397.568c-0.6656-5.0688-1.4848-8.704-1.536-12.3392-0.1536-15.2576 0.3584-30.5152-0.1536-45.7216-1.1776-34.2528-22.1184-54.784-55.9616-54.784-132.5568-0.1024-265.1648-0.1024-397.7216 0-34.3552 0.0512-54.6304 20.6336-54.6816 55.3472-0.1024 115.3024-0.1024 230.6048 0 345.9072 0.0512 35.584 20.224 55.808 55.7056 55.8592 59.392 0.0512 118.7328 0 178.1248 0 173.4144-48.5888 304.5376-198.2464 325.888-381.44-16.0256 11.9296-32 23.9616-49.664 37.1712z m-320.1024 166.8096c-46.592-0.6656-88.8832-43.2128-88.7808-89.2928 0.1536-46.2848 42.496-88.7296 88.9344-89.1392 46.0288-0.4096 88.576 41.6768 89.4464 88.576 0.9728 46.1312-43.3152 90.5216-89.6 89.856z" fill="#296aaf" p-id="20528" data-spm-anchor-id="a313x.search_index.0.i5.41e13a81xPhu5w" class=""></path><path d="M261.5808 284.7232c-34.3552 0.0512-54.6304 20.6336-54.6816 55.3472-0.1024 86.0672-0.0512 172.1344 0 258.2016a448.62976 448.62976 0 0 0 168.6528-37.2736c-37.376-10.8032-67.5328-47.0528-67.3792-85.9648 0.1536-46.2848 42.496-88.7296 88.9344-89.1392 46.0288-0.4096 88.576 41.6768 89.4464 88.576 0.1024 6.5024-0.7168 13.0048-2.304 19.3536 65.024-54.272 114.5344-126.5664 140.8512-209.152-121.1392-0.0512-242.3296-0.0512-363.52 0.0512z" fill="#467bb4" p-id="20529" data-spm-anchor-id="a313x.search_index.0.i9.41e13a81xPhu5w" class=""></path><path d="M206.8992 340.0704v81.3568c84.3264-24.2176 158.5152-72.3968 214.7328-136.704-53.3504 0-106.7008-0.0512-160.0512 0-34.3552 0.0512-54.6304 20.6336-54.6816 55.3472z" fill="#6d90b5" p-id="20530" data-spm-anchor-id="a313x.search_index.0.i11.41e13a81xPhu5w" class="selected"></path></svg>