<svg t="1698988947512" class="icon" viewBox="0 0 1024 1024" version="1.1" xmlns="http://www.w3.org/2000/svg" p-id="12964" width="32" height="32"><path d="M170.666667 384h682.666666v341.333333a85.333333 85.333333 0 0 1-85.333333 85.333334H256a85.333333 85.333333 0 0 1-85.333333-85.333334V384z m146.624-170.666667h389.418666a85.333333 85.333333 0 0 1 65.536 30.72L853.333333 341.333333H170.666667l81.066666-97.28A85.333333 85.333333 0 0 1 317.312 213.333333zM362.666667 512a21.333333 21.333333 0 0 0 0 42.666667h298.666666a21.333333 21.333333 0 0 0 0-42.666667H362.666667z m0 106.666667a21.333333 21.333333 0 0 0 0 42.666666h298.666666a21.333333 21.333333 0 0 0 0-42.666666H362.666667z" fill="#a0b8d0" p-id="12965" data-spm-anchor-id="a313x.search_index.0.i6.10e63a81YclnuW" class="selected"></path><path d="M407.92875 458.008027m15.084945 15.084945l0 0q15.084945 15.084945 0 30.169889l-45.254834 45.254834q-15.084945 15.084945-30.169889 0l0 0q-15.084945-15.084945 0-30.169889l45.254834-45.254834q15.084945-15.084945 30.169889 0Z" fill="#a0b8d0" p-id="12966" data-spm-anchor-id="a313x.search_index.0.i7.10e63a81YclnuW" class="selected"></path><path d="M661.198084 609.666694m15.084944 15.084944l0 0q15.084945 15.084945 0 30.16989l-45.254834 45.254834q-15.084945 15.084945-30.169889 0l0 0q-15.084945-15.084945 0-30.16989l45.254834-45.254834q15.084945-15.084945 30.169889 0Z" fill="#a0b8d0" p-id="12967" data-spm-anchor-id="a313x.search_index.0.i8.10e63a81YclnuW" class="selected"></path></svg>