<svg width="40" height="40" viewBox="0 0 40 40" fill="none" xmlns="http://www.w3.org/2000/svg">
<path d="M20 34.1667C27.8242 34.1667 34.1667 27.8242 34.1667 20C34.1667 12.1758 27.8242 5.83333 20 5.83333C12.1758 5.83333 5.83333 12.1758 5.83333 20C5.83333 27.8242 12.1758 34.1667 20 34.1667ZM20 37.5C10.335 37.5 2.5 29.665 2.5 20C2.5 10.335 10.335 2.5 20 2.5C29.665 2.5 37.5 10.335 37.5 20C37.5 29.665 29.665 37.5 20 37.5Z" fill="#1296DB"/>
<path d="M22.83 28.2508C22.4552 28.1327 22.1343 27.8857 21.9241 27.5537C21.714 27.2217 21.6281 26.826 21.6817 26.4367V13.3333C21.6816 13.1144 21.7247 12.8977 21.8085 12.6955C21.8922 12.4932 22.015 12.3094 22.1697 12.1547C22.3245 11.9999 22.5082 11.8771 22.7105 11.7933C22.9127 11.7095 23.1294 11.6664 23.3483 11.6664C23.5672 11.6664 23.784 11.7095 23.9862 11.7933C24.1884 11.8771 24.3722 11.9999 24.5269 12.1547C24.6817 12.3094 24.8045 12.4932 24.8882 12.6955C24.9719 12.8977 25.015 13.1144 25.015 13.3333V22.6233L26.8692 20.7692C27.024 20.6144 27.2077 20.4917 27.4099 20.408C27.6122 20.3242 27.8289 20.2812 28.0478 20.2812C28.2667 20.2812 28.4834 20.3244 28.6856 20.4082C28.8878 20.492 29.0715 20.6148 29.2263 20.7696C29.381 20.9244 29.5037 21.1081 29.5875 21.3104C29.6712 21.5126 29.7142 21.7293 29.7142 21.9482C29.7142 22.1671 29.671 22.3838 29.5872 22.586C29.5034 22.7882 29.3806 22.9719 29.2258 23.1267L24.6708 27.6817C24.4609 27.9558 24.171 28.1578 23.8412 28.2598C23.5113 28.3617 23.158 28.3586 22.83 28.2508ZM15 17.3667L13.1258 19.2408C12.971 19.3956 12.7873 19.5183 12.585 19.602C12.3828 19.6858 12.1661 19.7288 11.9472 19.7288C11.7283 19.7288 11.5116 19.6856 11.3094 19.6018C11.1072 19.518 10.9235 19.3952 10.7687 19.2404C10.614 19.0856 10.4913 18.9019 10.4075 18.6996C10.3238 18.4974 10.2808 18.2807 10.2808 18.0618C10.2808 17.8429 10.324 17.6262 10.4078 17.424C10.4916 17.2218 10.6144 17.0381 10.7692 16.8833L15.3892 12.2642C15.6088 12.002 15.9038 11.8138 16.2341 11.725C16.5645 11.6362 16.9141 11.6513 17.2356 11.768C17.557 11.8848 17.8348 12.0976 18.0312 12.3776C18.2276 12.6576 18.3331 12.9913 18.3333 13.3333V26.6667C18.3334 26.8856 18.2903 27.1023 18.2065 27.3046C18.1228 27.5068 18 27.6906 17.8453 27.8453C17.6905 28.0001 17.5068 28.1229 17.3045 28.2067C17.1023 28.2905 16.8856 28.3336 16.6667 28.3336C16.4478 28.3336 16.231 28.2905 16.0288 28.2067C15.8266 28.1229 15.6428 28.0001 15.4881 27.8453C15.3333 27.6906 15.2105 27.5068 15.1268 27.3046C15.0431 27.1023 15 26.8856 15 26.6667V17.3667Z" fill="#1296DB"/>
</svg>
